<svg xmlns="http://www.w3.org/2000/svg"  viewBox="0 0 64 64" width="128px" height="128px"><linearGradient id="EMGa1PQ~iDAITeogaNedXa" x1="31" x2="31" y1="23.75" y2="28.195" gradientUnits="userSpaceOnUse" spreadMethod="reflect"><stop offset="0" stop-color="#6dc7ff"/><stop offset="1" stop-color="#e6abff"/></linearGradient><path fill="url(#EMGa1PQ~iDAITeogaNedXa)" d="M31 24A2 2 0 1 0 31 28A2 2 0 1 0 31 24Z"/><linearGradient id="EMGa1PQ~iDAITeogaNedXb" x1="25" x2="25" y1="7.583" y2="10.46" gradientUnits="userSpaceOnUse" spreadMethod="reflect"><stop offset="0" stop-color="#6dc7ff"/><stop offset="1" stop-color="#e6abff"/></linearGradient><path fill="url(#EMGa1PQ~iDAITeogaNedXb)" d="M20 8H30V10H20z"/><linearGradient id="EMGa1PQ~iDAITeogaNedXc" x1="21.5" x2="21.5" y1="53.583" y2="56.338" gradientUnits="userSpaceOnUse" spreadMethod="reflect"><stop offset="0" stop-color="#6dc7ff"/><stop offset="1" stop-color="#e6abff"/></linearGradient><path fill="url(#EMGa1PQ~iDAITeogaNedXc)" d="M19 54H24V56H19z"/><linearGradient id="EMGa1PQ~iDAITeogaNedXd" x1="42.5" x2="42.5" y1="53.583" y2="56.338" gradientUnits="userSpaceOnUse" spreadMethod="reflect"><stop offset="0" stop-color="#6dc7ff"/><stop offset="1" stop-color="#e6abff"/></linearGradient><path fill="url(#EMGa1PQ~iDAITeogaNedXd)" d="M40 54H45V56H40z"/><linearGradient id="EMGa1PQ~iDAITeogaNedXe" x1="32" x2="32" y1="5.667" y2="57.667" gradientUnits="userSpaceOnUse" spreadMethod="reflect"><stop offset="0" stop-color="#1a6dff"/><stop offset="1" stop-color="#c822ff"/></linearGradient><path fill="url(#EMGa1PQ~iDAITeogaNedXe)" d="M52,48h-3c0-2.215-1.209-4.149-3-5.188V28c0-2.757-2.243-5-5-5h-4.812 c-0.879-1.514-2.399-2.608-4.188-2.91V16c0-1.103-0.897-2-2-2h-1v-2h1c1.103,0,2-0.897,2-2V8c0-1.103-0.897-2-2-2H20 c-1.103,0-2,0.897-2,2v2c0,1.103,0.897,2,2,2h1v2h-1c-1.103,0-2,0.897-2,2v20c0,1.103,0.897,2,2,2h1c0,1.103,0.897,2,2,2h4 c1.103,0,2-0.897,2-2h1c1.103,0,2-0.897,2-2v-4.09c1.789-0.302,3.309-1.395,4.188-2.91H39c0.552,0,1,0.448,1,1v12.812 c-1.791,1.039-3,2.973-3,5.188h-8v-2h5v-2H16v2h5v2h-9c-1.103,0-2,0.897-2,2v2c0,1.103,0.897,2,2,2h5v1c0,1.654,1.346,3,3,3h3 c1.654,0,3-1.346,3-3v-1h12v1c0,1.654,1.346,3,3,3h3c1.654,0,3-1.346,3-3v-1h5c1.103,0,2-0.897,2-2v-2C54,48.897,53.103,48,52,48z M20,10V8h10v2H20z M23,12h4v2h-4V12z M20,36V20h5v-2h-5v-2h10v4.09c-2.833,0.478-5,2.942-5,5.91s2.167,5.431,5,5.91V36H20z M31,30 c-2.206,0-4-1.794-4-4s1.794-4,4-4s4,1.794,4,4S33.206,30,31,30z M39,27h-2.09c0.055-0.326,0.09-0.659,0.09-1s-0.035-0.674-0.09-1 H41c1.654,0,3,1.346,3,3v14.09C43.674,42.035,43.341,42,43,42s-0.674,0.035-1,0.09V30C42,28.346,40.654,27,39,27z M43,44 c2.206,0,4,1.794,4,4h-2c0-1.103-0.897-2-2-2s-2,0.897-2,2h-2C39,45.794,40.794,44,43,44z M23,46h4v2h-4V46z M24,55 c0,0.552-0.448,1-1,1h-3c-0.552,0-1-0.448-1-1v-1h5V55z M45,55c0,0.552-0.448,1-1,1h-3c-0.552,0-1-0.448-1-1v-1h5V55z M52,52H12v-2 h40V52z"/></svg>